<?xml version="1.0" encoding="UTF-8" standalone="no"?>
<!DOCTYPE svg PUBLIC "-//W3C//DTD SVG 1.1//EN"
 "http://www.w3.org/Graphics/SVG/1.1/DTD/svg11.dtd">
<!-- Generated by graphviz version 2.47.0 (20210316.0004)
 -->
<!-- Title: dependencies Pages: 1 -->
<svg width="1992pt" height="396pt"
 viewBox="0.00 0.00 1992.00 395.59" xmlns="http://www.w3.org/2000/svg" xmlns:xlink="http://www.w3.org/1999/xlink">
<g id="graph0" class="graph" transform="scale(1 1) rotate(0) translate(4 391.59)">
<title>dependencies</title>
<polygon fill="white" stroke="transparent" points="-4,4 -4,-391.59 1988,-391.59 1988,4 -4,4"/>
<text text-anchor="start" x="971.01" y="-42.4" font-family="sans-serif" font-weight="bold" font-size="14.00">Legend</text>
<polygon fill="#ffffb3" stroke="transparent" points="758,-10 758,-30 778,-30 778,-10 758,-10"/>
<text text-anchor="start" x="781.63" y="-15.4" font-family="sans-serif" font-size="14.00"> &#160;Declarations</text>
<polygon fill="#8dd3c7" stroke="transparent" points="871,-10 871,-30 891,-30 891,-10 871,-10"/>
<text text-anchor="start" x="894.73" y="-15.4" font-family="sans-serif" font-size="14.00"> &#160;Module</text>
<polygon fill="#80b1d3" stroke="transparent" points="957,-10 957,-30 977,-30 977,-10 957,-10"/>
<text text-anchor="start" x="980.78" y="-15.4" font-family="sans-serif" font-size="14.00"> &#160;Bootstrap</text>
<polygon fill="#fdb462" stroke="transparent" points="1054,-10 1054,-30 1074,-30 1074,-10 1054,-10"/>
<text text-anchor="start" x="1077.67" y="-15.4" font-family="sans-serif" font-size="14.00"> &#160;Providers</text>
<polygon fill="#fb8072" stroke="transparent" points="1150,-10 1150,-30 1170,-30 1170,-10 1150,-10"/>
<text text-anchor="start" x="1173.73" y="-15.4" font-family="sans-serif" font-size="14.00"> &#160;Exports</text>
<g id="clust1" class="cluster">
<title>cluster_ParticipantsSelectModule</title>
<polygon fill="none" stroke="black" stroke-dasharray="1,5" points="8,-70 8,-379.59 1976,-379.59 1976,-70 8,-70"/>
</g>
<g id="clust3" class="cluster">
<title>cluster_ParticipantsSelectModule_ParticipantsSelectComponent_providers</title>
<polygon fill="none" stroke="black" points="146,-78 146,-241.59 1968,-241.59 1968,-78 146,-78"/>
</g>
<g id="clust4" class="cluster">
<title>cluster_ParticipantsSelectModule_imports</title>
<polygon fill="none" stroke="black" points="16,-189.59 16,-241.59 138,-241.59 138,-189.59 16,-189.59"/>
</g>
<g id="clust5" class="cluster">
<title>cluster_ParticipantsSelectModule_exports</title>
<polygon fill="none" stroke="black" points="251,-319.59 251,-371.59 453,-371.59 453,-319.59 251,-319.59"/>
</g>
<!-- ParticipantsSelectComponent -->
<g id="node1" class="node">
<title>ParticipantsSelectComponent</title>
<polygon fill="#ffffb3" stroke="black" points="678.63,-233.59 497.37,-233.59 497.37,-197.59 678.63,-197.59 678.63,-233.59"/>
<text text-anchor="middle" x="588" y="-211.39" font-family="Times,serif" font-size="14.00">ParticipantsSelectComponent</text>
</g>
<!-- ParticipantsSelectModule -->
<g id="node2" class="node">
<title>ParticipantsSelectModule</title>
<polygon fill="#8dd3c7" stroke="black" points="431.85,-298.59 428.85,-302.59 407.85,-302.59 404.85,-298.59 272.15,-298.59 272.15,-262.59 431.85,-262.59 431.85,-298.59"/>
<text text-anchor="middle" x="352" y="-276.39" font-family="Times,serif" font-size="14.00">ParticipantsSelectModule</text>
</g>
<!-- ParticipantsSelectComponent&#45;&gt;ParticipantsSelectModule -->
<g id="edge1" class="edge">
<title>ParticipantsSelectComponent&#45;&gt;ParticipantsSelectModule</title>
<path fill="none" stroke="black" d="M497.09,-215.59C430.61,-215.59 352,-215.59 352,-215.59 352,-215.59 352,-252.48 352,-252.48"/>
<polygon fill="black" stroke="black" points="348.5,-252.48 352,-262.48 355.5,-252.48 348.5,-252.48"/>
</g>
<!-- ParticipantsSelectComponent  -->
<g id="node6" class="node">
<title>ParticipantsSelectComponent </title>
<polygon fill="#fb8072" stroke="black" points="444.63,-363.59 259.37,-363.59 259.37,-327.59 444.63,-327.59 444.63,-363.59"/>
<text text-anchor="middle" x="352" y="-341.39" font-family="Times,serif" font-size="14.00">ParticipantsSelectComponent </text>
</g>
<!-- ParticipantsSelectModule&#45;&gt;ParticipantsSelectComponent  -->
<g id="edge5" class="edge">
<title>ParticipantsSelectModule&#45;&gt;ParticipantsSelectComponent </title>
<path fill="none" stroke="black" stroke-dasharray="5,2" d="M352,-298.7C352,-298.7 352,-317.58 352,-317.58"/>
<polygon fill="black" stroke="black" points="348.5,-317.58 352,-327.58 355.5,-317.58 348.5,-317.58"/>
</g>
<!-- {
 &#160;&#160;&#160;provide: NG_VALUE_ACCESSOR, useExisting: forwardRef(() =&gt; ParticipantsSelectComponent), multi: true
} -->
<g id="node3" class="node">
<title>{
 &#160;&#160;&#160;provide: NG_VALUE_ACCESSOR, useExisting: forwardRef(() =&gt; ParticipantsSelectComponent), multi: true
}</title>
<ellipse fill="#fdb462" stroke="black" cx="1500" cy="-127.3" rx="460.37" ry="41.09"/>
<text text-anchor="middle" x="1500" y="-139.9" font-family="Times,serif" font-size="14.00">{</text>
<text text-anchor="middle" x="1500" y="-123.1" font-family="Times,serif" font-size="14.00"> &#160;&#160;&#160;provide: NG_VALUE_ACCESSOR, useExisting: forwardRef(() =&gt; ParticipantsSelectComponent), multi: true</text>
<text text-anchor="middle" x="1500" y="-106.3" font-family="Times,serif" font-size="14.00">}</text>
</g>
<!-- {
 &#160;&#160;&#160;provide: NG_VALUE_ACCESSOR, useExisting: forwardRef(() =&gt; ParticipantsSelectComponent), multi: true
}&#45;&gt;ParticipantsSelectComponent -->
<g id="edge2" class="edge">
<title>{
 &#160;&#160;&#160;provide: NG_VALUE_ACCESSOR, useExisting: forwardRef(() =&gt; ParticipantsSelectComponent), multi: true
}&#45;&gt;ParticipantsSelectComponent</title>
<path fill="none" stroke="black" d="M1500,-168.6C1500,-191.58 1500,-215.59 1500,-215.59 1500,-215.59 688.78,-215.59 688.78,-215.59"/>
<polygon fill="black" stroke="black" points="688.78,-212.09 678.78,-215.59 688.78,-219.09 688.78,-212.09"/>
</g>
<!-- {
 &#160;&#160;&#160;provide: NG_VALIDATORS, useExisting: forwardRef(() =&gt; ParticipantsSelectComponent), multi: true
} -->
<g id="node4" class="node">
<title>{
 &#160;&#160;&#160;provide: NG_VALIDATORS, useExisting: forwardRef(() =&gt; ParticipantsSelectComponent), multi: true
}</title>
<ellipse fill="#fdb462" stroke="black" cx="588" cy="-127.3" rx="434.05" ry="41.09"/>
<text text-anchor="middle" x="588" y="-139.9" font-family="Times,serif" font-size="14.00">{</text>
<text text-anchor="middle" x="588" y="-123.1" font-family="Times,serif" font-size="14.00"> &#160;&#160;&#160;provide: NG_VALIDATORS, useExisting: forwardRef(() =&gt; ParticipantsSelectComponent), multi: true</text>
<text text-anchor="middle" x="588" y="-106.3" font-family="Times,serif" font-size="14.00">}</text>
</g>
<!-- {
 &#160;&#160;&#160;provide: NG_VALIDATORS, useExisting: forwardRef(() =&gt; ParticipantsSelectComponent), multi: true
}&#45;&gt;ParticipantsSelectComponent -->
<g id="edge3" class="edge">
<title>{
 &#160;&#160;&#160;provide: NG_VALIDATORS, useExisting: forwardRef(() =&gt; ParticipantsSelectComponent), multi: true
}&#45;&gt;ParticipantsSelectComponent</title>
<path fill="none" stroke="black" d="M588,-168.6C588,-168.6 588,-187.26 588,-187.26"/>
<polygon fill="black" stroke="black" points="584.5,-187.26 588,-197.26 591.5,-187.26 584.5,-187.26"/>
</g>
<!-- MaterialModule -->
<g id="node5" class="node">
<title>MaterialModule</title>
<polygon fill="#8dd3c7" stroke="black" points="130.47,-233.59 127.47,-237.59 106.47,-237.59 103.47,-233.59 23.53,-233.59 23.53,-197.59 130.47,-197.59 130.47,-233.59"/>
<text text-anchor="middle" x="77" y="-211.39" font-family="Times,serif" font-size="14.00">MaterialModule</text>
</g>
<!-- MaterialModule&#45;&gt;ParticipantsSelectModule -->
<g id="edge4" class="edge">
<title>MaterialModule&#45;&gt;ParticipantsSelectModule</title>
<path fill="none" stroke="black" d="M77,-233.7C77,-252.93 77,-280.59 77,-280.59 77,-280.59 262.09,-280.59 262.09,-280.59"/>
<polygon fill="black" stroke="black" points="262.09,-284.09 272.09,-280.59 262.09,-277.09 262.09,-284.09"/>
</g>
</g>
</svg>
