<?xml version="1.0" encoding="UTF-8" standalone="no"?>
<!DOCTYPE svg PUBLIC "-//W3C//DTD SVG 1.1//EN"
 "http://www.w3.org/Graphics/SVG/1.1/DTD/svg11.dtd">
<!-- Generated by graphviz version 2.47.0 (20210316.0004)
 -->
<!-- Title: dependencies Pages: 1 -->
<svg width="689pt" height="211pt"
 viewBox="0.00 0.00 689.00 211.00" xmlns="http://www.w3.org/2000/svg" xmlns:xlink="http://www.w3.org/1999/xlink">
<g id="graph0" class="graph" transform="scale(1 1) rotate(0) translate(4 207)">
<title>dependencies</title>
<polygon fill="white" stroke="transparent" points="-4,4 -4,-207 685,-207 685,4 -4,4"/>
<text text-anchor="start" x="319.51" y="-42.4" font-family="sans-serif" font-weight="bold" font-size="14.00">Legend</text>
<polygon fill="#ffffb3" stroke="transparent" points="106.5,-10 106.5,-30 126.5,-30 126.5,-10 106.5,-10"/>
<text text-anchor="start" x="130.13" y="-15.4" font-family="sans-serif" font-size="14.00"> &#160;Declarations</text>
<polygon fill="#8dd3c7" stroke="transparent" points="219.5,-10 219.5,-30 239.5,-30 239.5,-10 219.5,-10"/>
<text text-anchor="start" x="243.23" y="-15.4" font-family="sans-serif" font-size="14.00"> &#160;Module</text>
<polygon fill="#80b1d3" stroke="transparent" points="305.5,-10 305.5,-30 325.5,-30 325.5,-10 305.5,-10"/>
<text text-anchor="start" x="329.28" y="-15.4" font-family="sans-serif" font-size="14.00"> &#160;Bootstrap</text>
<polygon fill="#fdb462" stroke="transparent" points="402.5,-10 402.5,-30 422.5,-30 422.5,-10 402.5,-10"/>
<text text-anchor="start" x="426.17" y="-15.4" font-family="sans-serif" font-size="14.00"> &#160;Providers</text>
<polygon fill="#fb8072" stroke="transparent" points="498.5,-10 498.5,-30 518.5,-30 518.5,-10 498.5,-10"/>
<text text-anchor="start" x="522.23" y="-15.4" font-family="sans-serif" font-size="14.00"> &#160;Exports</text>
<g id="clust1" class="cluster">
<title>cluster_InteractionsModule</title>
<polygon fill="none" stroke="black" stroke-dasharray="1,5" points="8,-70 8,-195 673,-195 673,-70 8,-70"/>
</g>
<g id="clust2" class="cluster">
<title>cluster_InteractionsModule_declarations</title>
<polygon fill="none" stroke="black" points="501,-78 501,-130 665,-130 665,-78 501,-78"/>
</g>
<g id="clust4" class="cluster">
<title>cluster_InteractionsModule_imports</title>
<polygon fill="none" stroke="black" points="16,-78 16,-130 493,-130 493,-78 16,-78"/>
</g>
<!-- InteractionsComponent -->
<g id="node1" class="node">
<title>InteractionsComponent</title>
<polygon fill="#ffffb3" stroke="black" points="656.91,-122 509.09,-122 509.09,-86 656.91,-86 656.91,-122"/>
<text text-anchor="middle" x="583" y="-99.8" font-family="Times,serif" font-size="14.00">InteractionsComponent</text>
</g>
<!-- InteractionsModule -->
<g id="node2" class="node">
<title>InteractionsModule</title>
<polygon fill="#8dd3c7" stroke="black" points="384.63,-187 381.63,-191 360.63,-191 357.63,-187 259.37,-187 259.37,-151 384.63,-151 384.63,-187"/>
<text text-anchor="middle" x="322" y="-164.8" font-family="Times,serif" font-size="14.00">InteractionsModule</text>
</g>
<!-- InteractionsComponent&#45;&gt;InteractionsModule -->
<g id="edge1" class="edge">
<title>InteractionsComponent&#45;&gt;InteractionsModule</title>
<path fill="none" stroke="black" d="M583,-122.11C583,-141.34 583,-169 583,-169 583,-169 394.85,-169 394.85,-169"/>
<polygon fill="black" stroke="black" points="394.85,-165.5 384.85,-169 394.85,-172.5 394.85,-165.5"/>
</g>
<!-- InteractionCardModule -->
<g id="node3" class="node">
<title>InteractionCardModule</title>
<polygon fill="#8dd3c7" stroke="black" points="484.9,-122 481.9,-126 460.9,-126 457.9,-122 337.1,-122 337.1,-86 484.9,-86 484.9,-122"/>
<text text-anchor="middle" x="411" y="-99.8" font-family="Times,serif" font-size="14.00">InteractionCardModule</text>
</g>
<!-- InteractionCardModule&#45;&gt;InteractionsModule -->
<g id="edge2" class="edge">
<title>InteractionCardModule&#45;&gt;InteractionsModule</title>
<path fill="none" stroke="black" d="M361.06,-122.11C361.06,-122.11 361.06,-140.99 361.06,-140.99"/>
<polygon fill="black" stroke="black" points="357.56,-140.99 361.06,-150.99 364.56,-140.99 357.56,-140.99"/>
</g>
<!-- InteractionsRoutingModule -->
<g id="node4" class="node">
<title>InteractionsRoutingModule</title>
<polygon fill="#8dd3c7" stroke="black" points="319.25,-122 316.25,-126 295.25,-126 292.25,-122 148.75,-122 148.75,-86 319.25,-86 319.25,-122"/>
<text text-anchor="middle" x="234" y="-99.8" font-family="Times,serif" font-size="14.00">InteractionsRoutingModule</text>
</g>
<!-- InteractionsRoutingModule&#45;&gt;InteractionsModule -->
<g id="edge3" class="edge">
<title>InteractionsRoutingModule&#45;&gt;InteractionsModule</title>
<path fill="none" stroke="black" d="M289.28,-122.11C289.28,-122.11 289.28,-140.99 289.28,-140.99"/>
<polygon fill="black" stroke="black" points="285.78,-140.99 289.28,-150.99 292.78,-140.99 285.78,-140.99"/>
</g>
<!-- MaterialModule -->
<g id="node5" class="node">
<title>MaterialModule</title>
<polygon fill="#8dd3c7" stroke="black" points="130.47,-122 127.47,-126 106.47,-126 103.47,-122 23.53,-122 23.53,-86 130.47,-86 130.47,-122"/>
<text text-anchor="middle" x="77" y="-99.8" font-family="Times,serif" font-size="14.00">MaterialModule</text>
</g>
<!-- MaterialModule&#45;&gt;InteractionsModule -->
<g id="edge4" class="edge">
<title>MaterialModule&#45;&gt;InteractionsModule</title>
<path fill="none" stroke="black" d="M77,-122.11C77,-141.34 77,-169 77,-169 77,-169 249.22,-169 249.22,-169"/>
<polygon fill="black" stroke="black" points="249.22,-172.5 259.22,-169 249.22,-165.5 249.22,-172.5"/>
</g>
</g>
</svg>
