<?xml version="1.0" encoding="UTF-8" standalone="no"?>
<!DOCTYPE svg PUBLIC "-//W3C//DTD SVG 1.1//EN"
 "http://www.w3.org/Graphics/SVG/1.1/DTD/svg11.dtd">
<!-- Generated by graphviz version 2.47.0 (20210316.0004)
 -->
<!-- Title: dependencies Pages: 1 -->
<svg width="507pt" height="284pt"
 viewBox="0.00 0.00 507.00 284.00" xmlns="http://www.w3.org/2000/svg" xmlns:xlink="http://www.w3.org/1999/xlink">
<g id="graph0" class="graph" transform="scale(1 1) rotate(0) translate(4 280)">
<title>dependencies</title>
<polygon fill="white" stroke="transparent" points="-4,4 -4,-280 503,-280 503,4 -4,4"/>
<text text-anchor="start" x="228.51" y="-42.4" font-family="sans-serif" font-weight="bold" font-size="14.00">Legend</text>
<polygon fill="#ffffb3" stroke="transparent" points="15.5,-10 15.5,-30 35.5,-30 35.5,-10 15.5,-10"/>
<text text-anchor="start" x="39.13" y="-15.4" font-family="sans-serif" font-size="14.00"> &#160;Declarations</text>
<polygon fill="#8dd3c7" stroke="transparent" points="128.5,-10 128.5,-30 148.5,-30 148.5,-10 128.5,-10"/>
<text text-anchor="start" x="152.23" y="-15.4" font-family="sans-serif" font-size="14.00"> &#160;Module</text>
<polygon fill="#80b1d3" stroke="transparent" points="214.5,-10 214.5,-30 234.5,-30 234.5,-10 214.5,-10"/>
<text text-anchor="start" x="238.28" y="-15.4" font-family="sans-serif" font-size="14.00"> &#160;Bootstrap</text>
<polygon fill="#fdb462" stroke="transparent" points="311.5,-10 311.5,-30 331.5,-30 331.5,-10 311.5,-10"/>
<text text-anchor="start" x="335.17" y="-15.4" font-family="sans-serif" font-size="14.00"> &#160;Providers</text>
<polygon fill="#fb8072" stroke="transparent" points="407.5,-10 407.5,-30 427.5,-30 427.5,-10 407.5,-10"/>
<text text-anchor="start" x="431.23" y="-15.4" font-family="sans-serif" font-size="14.00"> &#160;Exports</text>
<g id="clust1" class="cluster">
<title>cluster_InteractionCardModule</title>
<polygon fill="none" stroke="black" stroke-dasharray="1,5" points="8,-70 8,-268 491,-268 491,-70 8,-70"/>
</g>
<g id="clust4" class="cluster">
<title>cluster_InteractionCardModule_imports</title>
<polygon fill="none" stroke="black" points="210,-78 210,-130 483,-130 483,-78 210,-78"/>
</g>
<g id="clust5" class="cluster">
<title>cluster_InteractionCardModule_exports</title>
<polygon fill="none" stroke="black" points="190,-208 190,-260 378,-260 378,-208 190,-208"/>
</g>
<g id="clust2" class="cluster">
<title>cluster_InteractionCardModule_declarations</title>
<polygon fill="none" stroke="black" points="16,-78 16,-130 202,-130 202,-78 16,-78"/>
</g>
<!-- InteractionCardComponent -->
<g id="node1" class="node">
<title>InteractionCardComponent</title>
<polygon fill="#ffffb3" stroke="black" points="193.68,-122 24.32,-122 24.32,-86 193.68,-86 193.68,-122"/>
<text text-anchor="middle" x="109" y="-99.8" font-family="Times,serif" font-size="14.00">InteractionCardComponent</text>
</g>
<!-- InteractionCardModule -->
<g id="node2" class="node">
<title>InteractionCardModule</title>
<polygon fill="#8dd3c7" stroke="black" points="357.9,-187 354.9,-191 333.9,-191 330.9,-187 210.1,-187 210.1,-151 357.9,-151 357.9,-187"/>
<text text-anchor="middle" x="284" y="-164.8" font-family="Times,serif" font-size="14.00">InteractionCardModule</text>
</g>
<!-- InteractionCardComponent&#45;&gt;InteractionCardModule -->
<g id="edge1" class="edge">
<title>InteractionCardComponent&#45;&gt;InteractionCardModule</title>
<path fill="none" stroke="black" d="M193.74,-104C205.68,-104 213.99,-104 213.99,-104 213.99,-104 213.99,-140.89 213.99,-140.89"/>
<polygon fill="black" stroke="black" points="210.49,-140.89 213.99,-150.89 217.49,-140.89 210.49,-140.89"/>
</g>
<!-- InteractionCardComponent  -->
<g id="node5" class="node">
<title>InteractionCardComponent </title>
<polygon fill="#fb8072" stroke="black" points="370.18,-252 197.82,-252 197.82,-216 370.18,-216 370.18,-252"/>
<text text-anchor="middle" x="284" y="-229.8" font-family="Times,serif" font-size="14.00">InteractionCardComponent </text>
</g>
<!-- InteractionCardModule&#45;&gt;InteractionCardComponent  -->
<g id="edge4" class="edge">
<title>InteractionCardModule&#45;&gt;InteractionCardComponent </title>
<path fill="none" stroke="black" stroke-dasharray="5,2" d="M284,-187.11C284,-187.11 284,-205.99 284,-205.99"/>
<polygon fill="black" stroke="black" points="280.5,-205.99 284,-215.99 287.5,-205.99 280.5,-205.99"/>
</g>
<!-- MaterialModule -->
<g id="node3" class="node">
<title>MaterialModule</title>
<polygon fill="#8dd3c7" stroke="black" points="475.47,-122 472.47,-126 451.47,-126 448.47,-122 368.53,-122 368.53,-86 475.47,-86 475.47,-122"/>
<text text-anchor="middle" x="422" y="-99.8" font-family="Times,serif" font-size="14.00">MaterialModule</text>
</g>
<!-- MaterialModule&#45;&gt;InteractionCardModule -->
<g id="edge2" class="edge">
<title>MaterialModule&#45;&gt;InteractionCardModule</title>
<path fill="none" stroke="black" d="M368.43,-104C360.01,-104 354.01,-104 354.01,-104 354.01,-104 354.01,-140.89 354.01,-140.89"/>
<polygon fill="black" stroke="black" points="350.51,-140.89 354.01,-150.89 357.51,-140.89 350.51,-140.89"/>
</g>
<!-- ReadonlyPillModule -->
<g id="node4" class="node">
<title>ReadonlyPillModule</title>
<polygon fill="#8dd3c7" stroke="black" points="350.16,-122 347.16,-126 326.16,-126 323.16,-122 217.84,-122 217.84,-86 350.16,-86 350.16,-122"/>
<text text-anchor="middle" x="284" y="-99.8" font-family="Times,serif" font-size="14.00">ReadonlyPillModule</text>
</g>
<!-- ReadonlyPillModule&#45;&gt;InteractionCardModule -->
<g id="edge3" class="edge">
<title>ReadonlyPillModule&#45;&gt;InteractionCardModule</title>
<path fill="none" stroke="black" d="M284,-122.11C284,-122.11 284,-140.99 284,-140.99"/>
<polygon fill="black" stroke="black" points="280.5,-140.99 284,-150.99 287.5,-140.99 280.5,-140.99"/>
</g>
</g>
</svg>
