<?xml version="1.0" encoding="UTF-8" standalone="no"?>
<!DOCTYPE svg PUBLIC "-//W3C//DTD SVG 1.1//EN"
 "http://www.w3.org/Graphics/SVG/1.1/DTD/svg11.dtd">
<!-- Generated by graphviz version 2.47.0 (20210316.0004)
 -->
<!-- Title: dependencies Pages: 1 -->
<svg width="538pt" height="284pt"
 viewBox="0.00 0.00 538.00 284.00" xmlns="http://www.w3.org/2000/svg" xmlns:xlink="http://www.w3.org/1999/xlink">
<g id="graph0" class="graph" transform="scale(1 1) rotate(0) translate(4 280)">
<title>dependencies</title>
<polygon fill="white" stroke="transparent" points="-4,4 -4,-280 534,-280 534,4 -4,4"/>
<text text-anchor="start" x="244.01" y="-42.4" font-family="sans-serif" font-weight="bold" font-size="14.00">Legend</text>
<polygon fill="#ffffb3" stroke="transparent" points="31,-10 31,-30 51,-30 51,-10 31,-10"/>
<text text-anchor="start" x="54.63" y="-15.4" font-family="sans-serif" font-size="14.00"> &#160;Declarations</text>
<polygon fill="#8dd3c7" stroke="transparent" points="144,-10 144,-30 164,-30 164,-10 144,-10"/>
<text text-anchor="start" x="167.73" y="-15.4" font-family="sans-serif" font-size="14.00"> &#160;Module</text>
<polygon fill="#80b1d3" stroke="transparent" points="230,-10 230,-30 250,-30 250,-10 230,-10"/>
<text text-anchor="start" x="253.78" y="-15.4" font-family="sans-serif" font-size="14.00"> &#160;Bootstrap</text>
<polygon fill="#fdb462" stroke="transparent" points="327,-10 327,-30 347,-30 347,-10 327,-10"/>
<text text-anchor="start" x="350.67" y="-15.4" font-family="sans-serif" font-size="14.00"> &#160;Providers</text>
<polygon fill="#fb8072" stroke="transparent" points="423,-10 423,-30 443,-30 443,-10 423,-10"/>
<text text-anchor="start" x="446.73" y="-15.4" font-family="sans-serif" font-size="14.00"> &#160;Exports</text>
<g id="clust1" class="cluster">
<title>cluster_ParticipantPopupModule</title>
<polygon fill="none" stroke="black" stroke-dasharray="1,5" points="8,-70 8,-268 522,-268 522,-70 8,-70"/>
</g>
<g id="clust4" class="cluster">
<title>cluster_ParticipantPopupModule_imports</title>
<polygon fill="none" stroke="black" points="218,-78 218,-130 514,-130 514,-78 218,-78"/>
</g>
<g id="clust5" class="cluster">
<title>cluster_ParticipantPopupModule_exports</title>
<polygon fill="none" stroke="black" points="205,-208 205,-260 403,-260 403,-208 205,-208"/>
</g>
<g id="clust2" class="cluster">
<title>cluster_ParticipantPopupModule_declarations</title>
<polygon fill="none" stroke="black" points="16,-78 16,-130 210,-130 210,-78 16,-78"/>
</g>
<!-- ParticipantPopupComponent -->
<g id="node1" class="node">
<title>ParticipantPopupComponent</title>
<polygon fill="#ffffb3" stroke="black" points="201.76,-122 24.24,-122 24.24,-86 201.76,-86 201.76,-122"/>
<text text-anchor="middle" x="113" y="-99.8" font-family="Times,serif" font-size="14.00">ParticipantPopupComponent</text>
</g>
<!-- ParticipantPopupModule -->
<g id="node2" class="node">
<title>ParticipantPopupModule</title>
<polygon fill="#8dd3c7" stroke="black" points="381.98,-187 378.98,-191 357.98,-191 354.98,-187 226.02,-187 226.02,-151 381.98,-151 381.98,-187"/>
<text text-anchor="middle" x="304" y="-164.8" font-family="Times,serif" font-size="14.00">ParticipantPopupModule</text>
</g>
<!-- ParticipantPopupComponent&#45;&gt;ParticipantPopupModule -->
<g id="edge1" class="edge">
<title>ParticipantPopupComponent&#45;&gt;ParticipantPopupModule</title>
<path fill="none" stroke="black" d="M113,-122.11C113,-141.34 113,-169 113,-169 113,-169 215.76,-169 215.76,-169"/>
<polygon fill="black" stroke="black" points="215.76,-172.5 225.76,-169 215.76,-165.5 215.76,-172.5"/>
</g>
<!-- ParticipantPopupComponent  -->
<g id="node5" class="node">
<title>ParticipantPopupComponent </title>
<polygon fill="#fb8072" stroke="black" points="394.76,-252 213.24,-252 213.24,-216 394.76,-216 394.76,-252"/>
<text text-anchor="middle" x="304" y="-229.8" font-family="Times,serif" font-size="14.00">ParticipantPopupComponent </text>
</g>
<!-- ParticipantPopupModule&#45;&gt;ParticipantPopupComponent  -->
<g id="edge4" class="edge">
<title>ParticipantPopupModule&#45;&gt;ParticipantPopupComponent </title>
<path fill="none" stroke="black" stroke-dasharray="5,2" d="M304,-187.11C304,-187.11 304,-205.99 304,-205.99"/>
<polygon fill="black" stroke="black" points="300.5,-205.99 304,-215.99 307.5,-205.99 300.5,-205.99"/>
</g>
<!-- MaterialModule -->
<g id="node3" class="node">
<title>MaterialModule</title>
<polygon fill="#8dd3c7" stroke="black" points="506.47,-122 503.47,-126 482.47,-126 479.47,-122 399.53,-122 399.53,-86 506.47,-86 506.47,-122"/>
<text text-anchor="middle" x="453" y="-99.8" font-family="Times,serif" font-size="14.00">MaterialModule</text>
</g>
<!-- MaterialModule&#45;&gt;ParticipantPopupModule -->
<g id="edge2" class="edge">
<title>MaterialModule&#45;&gt;ParticipantPopupModule</title>
<path fill="none" stroke="black" d="M453,-122.11C453,-141.34 453,-169 453,-169 453,-169 391.99,-169 391.99,-169"/>
<polygon fill="black" stroke="black" points="391.99,-165.5 381.99,-169 391.99,-172.5 391.99,-165.5"/>
</g>
<!-- ParticipantEditorModule -->
<g id="node4" class="node">
<title>ParticipantEditorModule</title>
<polygon fill="#8dd3c7" stroke="black" points="381.69,-122 378.69,-126 357.69,-126 354.69,-122 226.31,-122 226.31,-86 381.69,-86 381.69,-122"/>
<text text-anchor="middle" x="304" y="-99.8" font-family="Times,serif" font-size="14.00">ParticipantEditorModule</text>
</g>
<!-- ParticipantEditorModule&#45;&gt;ParticipantPopupModule -->
<g id="edge3" class="edge">
<title>ParticipantEditorModule&#45;&gt;ParticipantPopupModule</title>
<path fill="none" stroke="black" d="M304,-122.11C304,-122.11 304,-140.99 304,-140.99"/>
<polygon fill="black" stroke="black" points="300.5,-140.99 304,-150.99 307.5,-140.99 300.5,-140.99"/>
</g>
</g>
</svg>
