<?xml version="1.0" encoding="UTF-8" standalone="no"?>
<!DOCTYPE svg PUBLIC "-//W3C//DTD SVG 1.1//EN"
 "http://www.w3.org/Graphics/SVG/1.1/DTD/svg11.dtd">
<!-- Generated by graphviz version 2.47.0 (20210316.0004)
 -->
<!-- Title: dependencies Pages: 1 -->
<svg width="701pt" height="284pt"
 viewBox="0.00 0.00 701.00 284.00" xmlns="http://www.w3.org/2000/svg" xmlns:xlink="http://www.w3.org/1999/xlink">
<g id="graph0" class="graph" transform="scale(1 1) rotate(0) translate(4 280)">
<title>dependencies</title>
<polygon fill="white" stroke="transparent" points="-4,4 -4,-280 697,-280 697,4 -4,4"/>
<text text-anchor="start" x="325.51" y="-42.4" font-family="sans-serif" font-weight="bold" font-size="14.00">Legend</text>
<polygon fill="#ffffb3" stroke="transparent" points="112.5,-10 112.5,-30 132.5,-30 132.5,-10 112.5,-10"/>
<text text-anchor="start" x="136.13" y="-15.4" font-family="sans-serif" font-size="14.00"> &#160;Declarations</text>
<polygon fill="#8dd3c7" stroke="transparent" points="225.5,-10 225.5,-30 245.5,-30 245.5,-10 225.5,-10"/>
<text text-anchor="start" x="249.23" y="-15.4" font-family="sans-serif" font-size="14.00"> &#160;Module</text>
<polygon fill="#80b1d3" stroke="transparent" points="311.5,-10 311.5,-30 331.5,-30 331.5,-10 311.5,-10"/>
<text text-anchor="start" x="335.28" y="-15.4" font-family="sans-serif" font-size="14.00"> &#160;Bootstrap</text>
<polygon fill="#fdb462" stroke="transparent" points="408.5,-10 408.5,-30 428.5,-30 428.5,-10 408.5,-10"/>
<text text-anchor="start" x="432.17" y="-15.4" font-family="sans-serif" font-size="14.00"> &#160;Providers</text>
<polygon fill="#fb8072" stroke="transparent" points="504.5,-10 504.5,-30 524.5,-30 524.5,-10 504.5,-10"/>
<text text-anchor="start" x="528.23" y="-15.4" font-family="sans-serif" font-size="14.00"> &#160;Exports</text>
<g id="clust1" class="cluster">
<title>cluster_InteractionPopupModule</title>
<polygon fill="none" stroke="black" stroke-dasharray="1,5" points="8,-70 8,-268 685,-268 685,-70 8,-70"/>
</g>
<g id="clust5" class="cluster">
<title>cluster_InteractionPopupModule_exports</title>
<polygon fill="none" stroke="black" points="227,-208 227,-260 425,-260 425,-208 227,-208"/>
</g>
<g id="clust2" class="cluster">
<title>cluster_InteractionPopupModule_declarations</title>
<polygon fill="none" stroke="black" points="483,-78 483,-130 677,-130 677,-78 483,-78"/>
</g>
<g id="clust4" class="cluster">
<title>cluster_InteractionPopupModule_imports</title>
<polygon fill="none" stroke="black" points="16,-78 16,-130 475,-130 475,-78 16,-78"/>
</g>
<!-- InteractionPopupComponent -->
<g id="node1" class="node">
<title>InteractionPopupComponent</title>
<polygon fill="#ffffb3" stroke="black" points="668.75,-122 491.25,-122 491.25,-86 668.75,-86 668.75,-122"/>
<text text-anchor="middle" x="580" y="-99.8" font-family="Times,serif" font-size="14.00">InteractionPopupComponent</text>
</g>
<!-- InteractionPopupModule -->
<g id="node2" class="node">
<title>InteractionPopupModule</title>
<polygon fill="#8dd3c7" stroke="black" points="403.97,-187 400.97,-191 379.97,-191 376.97,-187 248.03,-187 248.03,-151 403.97,-151 403.97,-187"/>
<text text-anchor="middle" x="326" y="-164.8" font-family="Times,serif" font-size="14.00">InteractionPopupModule</text>
</g>
<!-- InteractionPopupComponent&#45;&gt;InteractionPopupModule -->
<g id="edge1" class="edge">
<title>InteractionPopupComponent&#45;&gt;InteractionPopupModule</title>
<path fill="none" stroke="black" d="M580,-122.11C580,-141.34 580,-169 580,-169 580,-169 414.28,-169 414.28,-169"/>
<polygon fill="black" stroke="black" points="414.28,-165.5 404.28,-169 414.28,-172.5 414.28,-165.5"/>
</g>
<!-- InteractionPopupComponent  -->
<g id="node6" class="node">
<title>InteractionPopupComponent </title>
<polygon fill="#fb8072" stroke="black" points="416.75,-252 235.25,-252 235.25,-216 416.75,-216 416.75,-252"/>
<text text-anchor="middle" x="326" y="-229.8" font-family="Times,serif" font-size="14.00">InteractionPopupComponent </text>
</g>
<!-- InteractionPopupModule&#45;&gt;InteractionPopupComponent  -->
<g id="edge5" class="edge">
<title>InteractionPopupModule&#45;&gt;InteractionPopupComponent </title>
<path fill="none" stroke="black" stroke-dasharray="5,2" d="M326,-187.11C326,-187.11 326,-205.99 326,-205.99"/>
<polygon fill="black" stroke="black" points="322.5,-205.99 326,-215.99 329.5,-205.99 322.5,-205.99"/>
</g>
<!-- DatepickerPillModule -->
<g id="node3" class="node">
<title>DatepickerPillModule</title>
<polygon fill="#8dd3c7" stroke="black" points="467.41,-122 464.41,-126 443.41,-126 440.41,-122 326.59,-122 326.59,-86 467.41,-86 467.41,-122"/>
<text text-anchor="middle" x="397" y="-99.8" font-family="Times,serif" font-size="14.00">DatepickerPillModule</text>
</g>
<!-- DatepickerPillModule&#45;&gt;InteractionPopupModule -->
<g id="edge2" class="edge">
<title>DatepickerPillModule&#45;&gt;InteractionPopupModule</title>
<path fill="none" stroke="black" d="M365.39,-122.11C365.39,-122.11 365.39,-140.99 365.39,-140.99"/>
<polygon fill="black" stroke="black" points="361.89,-140.99 365.39,-150.99 368.89,-140.99 361.89,-140.99"/>
</g>
<!-- MaterialModule -->
<g id="node4" class="node">
<title>MaterialModule</title>
<polygon fill="#8dd3c7" stroke="black" points="308.47,-122 305.47,-126 284.47,-126 281.47,-122 201.53,-122 201.53,-86 308.47,-86 308.47,-122"/>
<text text-anchor="middle" x="255" y="-99.8" font-family="Times,serif" font-size="14.00">MaterialModule</text>
</g>
<!-- MaterialModule&#45;&gt;InteractionPopupModule -->
<g id="edge3" class="edge">
<title>MaterialModule&#45;&gt;InteractionPopupModule</title>
<path fill="none" stroke="black" d="M278.25,-122.11C278.25,-122.11 278.25,-140.99 278.25,-140.99"/>
<polygon fill="black" stroke="black" points="274.75,-140.99 278.25,-150.99 281.75,-140.99 274.75,-140.99"/>
</g>
<!-- ParticipantsSelectModule -->
<g id="node5" class="node">
<title>ParticipantsSelectModule</title>
<polygon fill="#8dd3c7" stroke="black" points="183.85,-122 180.85,-126 159.85,-126 156.85,-122 24.15,-122 24.15,-86 183.85,-86 183.85,-122"/>
<text text-anchor="middle" x="104" y="-99.8" font-family="Times,serif" font-size="14.00">ParticipantsSelectModule</text>
</g>
<!-- ParticipantsSelectModule&#45;&gt;InteractionPopupModule -->
<g id="edge4" class="edge">
<title>ParticipantsSelectModule&#45;&gt;InteractionPopupModule</title>
<path fill="none" stroke="black" d="M104,-122.11C104,-141.34 104,-169 104,-169 104,-169 237.73,-169 237.73,-169"/>
<polygon fill="black" stroke="black" points="237.73,-172.5 247.73,-169 237.73,-165.5 237.73,-172.5"/>
</g>
</g>
</svg>
