<?xml version="1.0" encoding="UTF-8" standalone="no"?>
<!DOCTYPE svg PUBLIC "-//W3C//DTD SVG 1.1//EN"
 "http://www.w3.org/Graphics/SVG/1.1/DTD/svg11.dtd">
<!-- Generated by graphviz version 2.47.0 (20210316.0004)
 -->
<!-- Title: dependencies Pages: 1 -->
<svg width="1850pt" height="396pt"
 viewBox="0.00 0.00 1850.00 395.59" xmlns="http://www.w3.org/2000/svg" xmlns:xlink="http://www.w3.org/1999/xlink">
<g id="graph0" class="graph" transform="scale(1 1) rotate(0) translate(4 391.59)">
<title>dependencies</title>
<polygon fill="white" stroke="transparent" points="-4,4 -4,-391.59 1846,-391.59 1846,4 -4,4"/>
<text text-anchor="start" x="900.01" y="-42.4" font-family="sans-serif" font-weight="bold" font-size="14.00">Legend</text>
<polygon fill="#ffffb3" stroke="transparent" points="687,-10 687,-30 707,-30 707,-10 687,-10"/>
<text text-anchor="start" x="710.63" y="-15.4" font-family="sans-serif" font-size="14.00"> &#160;Declarations</text>
<polygon fill="#8dd3c7" stroke="transparent" points="800,-10 800,-30 820,-30 820,-10 800,-10"/>
<text text-anchor="start" x="823.73" y="-15.4" font-family="sans-serif" font-size="14.00"> &#160;Module</text>
<polygon fill="#80b1d3" stroke="transparent" points="886,-10 886,-30 906,-30 906,-10 886,-10"/>
<text text-anchor="start" x="909.78" y="-15.4" font-family="sans-serif" font-size="14.00"> &#160;Bootstrap</text>
<polygon fill="#fdb462" stroke="transparent" points="983,-10 983,-30 1003,-30 1003,-10 983,-10"/>
<text text-anchor="start" x="1006.67" y="-15.4" font-family="sans-serif" font-size="14.00"> &#160;Providers</text>
<polygon fill="#fb8072" stroke="transparent" points="1079,-10 1079,-30 1099,-30 1099,-10 1079,-10"/>
<text text-anchor="start" x="1102.73" y="-15.4" font-family="sans-serif" font-size="14.00"> &#160;Exports</text>
<g id="clust1" class="cluster">
<title>cluster_ParticipantEditorModule</title>
<polygon fill="none" stroke="black" stroke-dasharray="1,5" points="8,-70 8,-379.59 1834,-379.59 1834,-70 8,-70"/>
</g>
<g id="clust2" class="cluster">
<title>cluster_ParticipantEditorModule_declarations</title>
<polygon fill="none" stroke="black" points="812,-189.59 812,-241.59 1004,-241.59 1004,-189.59 812,-189.59"/>
</g>
<g id="clust3" class="cluster">
<title>cluster_ParticipantEditorModule_ParticipantEditorComponent_providers</title>
<polygon fill="none" stroke="black" points="16,-78 16,-176.59 1826,-176.59 1826,-78 16,-78"/>
</g>
<g id="clust4" class="cluster">
<title>cluster_ParticipantEditorModule_imports</title>
<polygon fill="none" stroke="black" points="682,-189.59 682,-241.59 804,-241.59 804,-189.59 682,-189.59"/>
</g>
<g id="clust5" class="cluster">
<title>cluster_ParticipantEditorModule_exports</title>
<polygon fill="none" stroke="black" points="727,-319.59 727,-371.59 923,-371.59 923,-319.59 727,-319.59"/>
</g>
<!-- ParticipantEditorComponent -->
<g id="node1" class="node">
<title>ParticipantEditorComponent</title>
<polygon fill="#ffffb3" stroke="black" points="996.48,-233.59 819.52,-233.59 819.52,-197.59 996.48,-197.59 996.48,-233.59"/>
<text text-anchor="middle" x="908" y="-211.39" font-family="Times,serif" font-size="14.00">ParticipantEditorComponent</text>
</g>
<!-- ParticipantEditorModule -->
<g id="node2" class="node">
<title>ParticipantEditorModule</title>
<polygon fill="#8dd3c7" stroke="black" points="902.69,-298.59 899.69,-302.59 878.69,-302.59 875.69,-298.59 747.31,-298.59 747.31,-262.59 902.69,-262.59 902.69,-298.59"/>
<text text-anchor="middle" x="825" y="-276.39" font-family="Times,serif" font-size="14.00">ParticipantEditorModule</text>
</g>
<!-- ParticipantEditorComponent&#45;&gt;ParticipantEditorModule -->
<g id="edge1" class="edge">
<title>ParticipantEditorComponent&#45;&gt;ParticipantEditorModule</title>
<path fill="none" stroke="black" d="M861.05,-233.7C861.05,-233.7 861.05,-252.58 861.05,-252.58"/>
<polygon fill="black" stroke="black" points="857.55,-252.58 861.05,-262.58 864.55,-252.58 857.55,-252.58"/>
</g>
<!-- ParticipantEditorComponent  -->
<g id="node6" class="node">
<title>ParticipantEditorComponent </title>
<polygon fill="#fb8072" stroke="black" points="915.48,-363.59 734.52,-363.59 734.52,-327.59 915.48,-327.59 915.48,-363.59"/>
<text text-anchor="middle" x="825" y="-341.39" font-family="Times,serif" font-size="14.00">ParticipantEditorComponent </text>
</g>
<!-- ParticipantEditorModule&#45;&gt;ParticipantEditorComponent  -->
<g id="edge5" class="edge">
<title>ParticipantEditorModule&#45;&gt;ParticipantEditorComponent </title>
<path fill="none" stroke="black" stroke-dasharray="5,2" d="M825,-298.7C825,-298.7 825,-317.58 825,-317.58"/>
<polygon fill="black" stroke="black" points="821.5,-317.58 825,-327.58 828.5,-317.58 821.5,-317.58"/>
</g>
<!-- {
 &#160;&#160;&#160;provide: NG_VALUE_ACCESSOR, useExisting: forwardRef(() =&gt; ParticipantEditorComponent), multi: true
} -->
<g id="node3" class="node">
<title>{
 &#160;&#160;&#160;provide: NG_VALUE_ACCESSOR, useExisting: forwardRef(() =&gt; ParticipantEditorComponent), multi: true
}</title>
<ellipse fill="#fdb462" stroke="black" cx="1361" cy="-127.3" rx="457.28" ry="41.09"/>
<text text-anchor="middle" x="1361" y="-139.9" font-family="Times,serif" font-size="14.00">{</text>
<text text-anchor="middle" x="1361" y="-123.1" font-family="Times,serif" font-size="14.00"> &#160;&#160;&#160;provide: NG_VALUE_ACCESSOR, useExisting: forwardRef(() =&gt; ParticipantEditorComponent), multi: true</text>
<text text-anchor="middle" x="1361" y="-106.3" font-family="Times,serif" font-size="14.00">}</text>
</g>
<!-- {
 &#160;&#160;&#160;provide: NG_VALUE_ACCESSOR, useExisting: forwardRef(() =&gt; ParticipantEditorComponent), multi: true
}&#45;&gt;ParticipantEditorComponent -->
<g id="edge2" class="edge">
<title>{
 &#160;&#160;&#160;provide: NG_VALUE_ACCESSOR, useExisting: forwardRef(() =&gt; ParticipantEditorComponent), multi: true
}&#45;&gt;ParticipantEditorComponent</title>
<path fill="none" stroke="black" d="M950.17,-145.59C950.17,-145.59 950.17,-187.32 950.17,-187.32"/>
<polygon fill="black" stroke="black" points="946.67,-187.32 950.17,-197.32 953.67,-187.32 946.67,-187.32"/>
</g>
<!-- {
 &#160;&#160;&#160;provide: NG_VALIDATORS, useExisting: forwardRef(() =&gt; ParticipantEditorComponent), multi: true
} -->
<g id="node4" class="node">
<title>{
 &#160;&#160;&#160;provide: NG_VALIDATORS, useExisting: forwardRef(() =&gt; ParticipantEditorComponent), multi: true
}</title>
<ellipse fill="#fdb462" stroke="black" cx="455" cy="-127.3" rx="430.97" ry="41.09"/>
<text text-anchor="middle" x="455" y="-139.9" font-family="Times,serif" font-size="14.00">{</text>
<text text-anchor="middle" x="455" y="-123.1" font-family="Times,serif" font-size="14.00"> &#160;&#160;&#160;provide: NG_VALIDATORS, useExisting: forwardRef(() =&gt; ParticipantEditorComponent), multi: true</text>
<text text-anchor="middle" x="455" y="-106.3" font-family="Times,serif" font-size="14.00">}</text>
</g>
<!-- {
 &#160;&#160;&#160;provide: NG_VALIDATORS, useExisting: forwardRef(() =&gt; ParticipantEditorComponent), multi: true
}&#45;&gt;ParticipantEditorComponent -->
<g id="edge3" class="edge">
<title>{
 &#160;&#160;&#160;provide: NG_VALIDATORS, useExisting: forwardRef(() =&gt; ParticipantEditorComponent), multi: true
}&#45;&gt;ParticipantEditorComponent</title>
<path fill="none" stroke="black" d="M852.62,-143.49C852.62,-143.49 852.62,-187.37 852.62,-187.37"/>
<polygon fill="black" stroke="black" points="849.12,-187.37 852.62,-197.37 856.12,-187.37 849.12,-187.37"/>
</g>
<!-- MaterialModule -->
<g id="node5" class="node">
<title>MaterialModule</title>
<polygon fill="#8dd3c7" stroke="black" points="796.47,-233.59 793.47,-237.59 772.47,-237.59 769.47,-233.59 689.53,-233.59 689.53,-197.59 796.47,-197.59 796.47,-233.59"/>
<text text-anchor="middle" x="743" y="-211.39" font-family="Times,serif" font-size="14.00">MaterialModule</text>
</g>
<!-- MaterialModule&#45;&gt;ParticipantEditorModule -->
<g id="edge4" class="edge">
<title>MaterialModule&#45;&gt;ParticipantEditorModule</title>
<path fill="none" stroke="black" d="M771.94,-233.7C771.94,-233.7 771.94,-252.58 771.94,-252.58"/>
<polygon fill="black" stroke="black" points="768.44,-252.58 771.94,-262.58 775.44,-252.58 768.44,-252.58"/>
</g>
</g>
</svg>
