<?xml version="1.0" encoding="UTF-8" standalone="no"?>
<!DOCTYPE svg PUBLIC "-//W3C//DTD SVG 1.1//EN"
 "http://www.w3.org/Graphics/SVG/1.1/DTD/svg11.dtd">
<!-- Generated by graphviz version 2.47.0 (20210316.0004)
 -->
<!-- Title: dependencies Pages: 1 -->
<svg width="504pt" height="284pt"
 viewBox="0.00 0.00 504.00 284.00" xmlns="http://www.w3.org/2000/svg" xmlns:xlink="http://www.w3.org/1999/xlink">
<g id="graph0" class="graph" transform="scale(1 1) rotate(0) translate(4 280)">
<title>dependencies</title>
<polygon fill="white" stroke="transparent" points="-4,4 -4,-280 500,-280 500,4 -4,4"/>
<text text-anchor="start" x="227.01" y="-42.4" font-family="sans-serif" font-weight="bold" font-size="14.00">Legend</text>
<polygon fill="#ffffb3" stroke="transparent" points="14,-10 14,-30 34,-30 34,-10 14,-10"/>
<text text-anchor="start" x="37.63" y="-15.4" font-family="sans-serif" font-size="14.00"> &#160;Declarations</text>
<polygon fill="#8dd3c7" stroke="transparent" points="127,-10 127,-30 147,-30 147,-10 127,-10"/>
<text text-anchor="start" x="150.73" y="-15.4" font-family="sans-serif" font-size="14.00"> &#160;Module</text>
<polygon fill="#80b1d3" stroke="transparent" points="213,-10 213,-30 233,-30 233,-10 213,-10"/>
<text text-anchor="start" x="236.78" y="-15.4" font-family="sans-serif" font-size="14.00"> &#160;Bootstrap</text>
<polygon fill="#fdb462" stroke="transparent" points="310,-10 310,-30 330,-30 330,-10 310,-10"/>
<text text-anchor="start" x="333.67" y="-15.4" font-family="sans-serif" font-size="14.00"> &#160;Providers</text>
<polygon fill="#fb8072" stroke="transparent" points="406,-10 406,-30 426,-30 426,-10 406,-10"/>
<text text-anchor="start" x="429.73" y="-15.4" font-family="sans-serif" font-size="14.00"> &#160;Exports</text>
<g id="clust1" class="cluster">
<title>cluster_ParticipantCardModule</title>
<polygon fill="none" stroke="black" stroke-dasharray="1,5" points="82,-70 82,-268 414,-268 414,-70 82,-70"/>
</g>
<g id="clust4" class="cluster">
<title>cluster_ParticipantCardModule_imports</title>
<polygon fill="none" stroke="black" points="284,-78 284,-130 406,-130 406,-78 284,-78"/>
</g>
<g id="clust2" class="cluster">
<title>cluster_ParticipantCardModule_declarations</title>
<polygon fill="none" stroke="black" points="90,-78 90,-130 276,-130 276,-78 90,-78"/>
</g>
<g id="clust5" class="cluster">
<title>cluster_ParticipantCardModule_exports</title>
<polygon fill="none" stroke="black" points="154,-208 154,-260 342,-260 342,-208 154,-208"/>
</g>
<!-- ParticipantCardComponent -->
<g id="node1" class="node">
<title>ParticipantCardComponent</title>
<polygon fill="#ffffb3" stroke="black" points="267.69,-122 98.31,-122 98.31,-86 267.69,-86 267.69,-122"/>
<text text-anchor="middle" x="183" y="-99.8" font-family="Times,serif" font-size="14.00">ParticipantCardComponent</text>
</g>
<!-- ParticipantCardModule -->
<g id="node2" class="node">
<title>ParticipantCardModule</title>
<polygon fill="#8dd3c7" stroke="black" points="321.91,-187 318.91,-191 297.91,-191 294.91,-187 174.09,-187 174.09,-151 321.91,-151 321.91,-187"/>
<text text-anchor="middle" x="248" y="-164.8" font-family="Times,serif" font-size="14.00">ParticipantCardModule</text>
</g>
<!-- ParticipantCardComponent&#45;&gt;ParticipantCardModule -->
<g id="edge1" class="edge">
<title>ParticipantCardComponent&#45;&gt;ParticipantCardModule</title>
<path fill="none" stroke="black" d="M220.95,-122.11C220.95,-122.11 220.95,-140.99 220.95,-140.99"/>
<polygon fill="black" stroke="black" points="217.45,-140.99 220.95,-150.99 224.45,-140.99 217.45,-140.99"/>
</g>
<!-- ParticipantCardComponent  -->
<g id="node4" class="node">
<title>ParticipantCardComponent </title>
<polygon fill="#fb8072" stroke="black" points="334.19,-252 161.81,-252 161.81,-216 334.19,-216 334.19,-252"/>
<text text-anchor="middle" x="248" y="-229.8" font-family="Times,serif" font-size="14.00">ParticipantCardComponent </text>
</g>
<!-- ParticipantCardModule&#45;&gt;ParticipantCardComponent  -->
<g id="edge3" class="edge">
<title>ParticipantCardModule&#45;&gt;ParticipantCardComponent </title>
<path fill="none" stroke="black" stroke-dasharray="5,2" d="M248,-187.11C248,-187.11 248,-205.99 248,-205.99"/>
<polygon fill="black" stroke="black" points="244.5,-205.99 248,-215.99 251.5,-205.99 244.5,-205.99"/>
</g>
<!-- MaterialModule -->
<g id="node3" class="node">
<title>MaterialModule</title>
<polygon fill="#8dd3c7" stroke="black" points="398.47,-122 395.47,-126 374.47,-126 371.47,-122 291.53,-122 291.53,-86 398.47,-86 398.47,-122"/>
<text text-anchor="middle" x="345" y="-99.8" font-family="Times,serif" font-size="14.00">MaterialModule</text>
</g>
<!-- MaterialModule&#45;&gt;ParticipantCardModule -->
<g id="edge2" class="edge">
<title>MaterialModule&#45;&gt;ParticipantCardModule</title>
<path fill="none" stroke="black" d="M306.61,-122.11C306.61,-122.11 306.61,-140.99 306.61,-140.99"/>
<polygon fill="black" stroke="black" points="303.11,-140.99 306.61,-150.99 310.11,-140.99 303.11,-140.99"/>
</g>
</g>
</svg>
