<?xml version="1.0" encoding="UTF-8" standalone="no"?>
<!DOCTYPE svg PUBLIC "-//W3C//DTD SVG 1.1//EN"
 "http://www.w3.org/Graphics/SVG/1.1/DTD/svg11.dtd">
<!-- Generated by graphviz version 2.47.0 (20210316.0004)
 -->
<!-- Title: dependencies Pages: 1 -->
<svg width="861pt" height="211pt"
 viewBox="0.00 0.00 861.00 211.00" xmlns="http://www.w3.org/2000/svg" xmlns:xlink="http://www.w3.org/1999/xlink">
<g id="graph0" class="graph" transform="scale(1 1) rotate(0) translate(4 207)">
<title>dependencies</title>
<polygon fill="white" stroke="transparent" points="-4,4 -4,-207 857,-207 857,4 -4,4"/>
<text text-anchor="start" x="405.51" y="-42.4" font-family="sans-serif" font-weight="bold" font-size="14.00">Legend</text>
<polygon fill="#ffffb3" stroke="transparent" points="192.5,-10 192.5,-30 212.5,-30 212.5,-10 192.5,-10"/>
<text text-anchor="start" x="216.13" y="-15.4" font-family="sans-serif" font-size="14.00"> &#160;Declarations</text>
<polygon fill="#8dd3c7" stroke="transparent" points="305.5,-10 305.5,-30 325.5,-30 325.5,-10 305.5,-10"/>
<text text-anchor="start" x="329.23" y="-15.4" font-family="sans-serif" font-size="14.00"> &#160;Module</text>
<polygon fill="#80b1d3" stroke="transparent" points="391.5,-10 391.5,-30 411.5,-30 411.5,-10 391.5,-10"/>
<text text-anchor="start" x="415.28" y="-15.4" font-family="sans-serif" font-size="14.00"> &#160;Bootstrap</text>
<polygon fill="#fdb462" stroke="transparent" points="488.5,-10 488.5,-30 508.5,-30 508.5,-10 488.5,-10"/>
<text text-anchor="start" x="512.17" y="-15.4" font-family="sans-serif" font-size="14.00"> &#160;Providers</text>
<polygon fill="#fb8072" stroke="transparent" points="584.5,-10 584.5,-30 604.5,-30 604.5,-10 584.5,-10"/>
<text text-anchor="start" x="608.23" y="-15.4" font-family="sans-serif" font-size="14.00"> &#160;Exports</text>
<g id="clust1" class="cluster">
<title>cluster_ParticipantsModule</title>
<polygon fill="none" stroke="black" stroke-dasharray="1,5" points="8,-70 8,-195 845,-195 845,-70 8,-70"/>
</g>
<g id="clust4" class="cluster">
<title>cluster_ParticipantsModule_imports</title>
<polygon fill="none" stroke="black" points="188,-78 188,-130 837,-130 837,-78 188,-78"/>
</g>
<g id="clust2" class="cluster">
<title>cluster_ParticipantsModule_declarations</title>
<polygon fill="none" stroke="black" points="16,-78 16,-130 180,-130 180,-78 16,-78"/>
</g>
<!-- ParticipantsComponent -->
<g id="node1" class="node">
<title>ParticipantsComponent</title>
<polygon fill="#ffffb3" stroke="black" points="171.93,-122 24.07,-122 24.07,-86 171.93,-86 171.93,-122"/>
<text text-anchor="middle" x="98" y="-99.8" font-family="Times,serif" font-size="14.00">ParticipantsComponent</text>
</g>
<!-- ParticipantsModule -->
<g id="node2" class="node">
<title>ParticipantsModule</title>
<polygon fill="#8dd3c7" stroke="black" points="524.64,-187 521.64,-191 500.64,-191 497.64,-187 399.36,-187 399.36,-151 524.64,-151 524.64,-187"/>
<text text-anchor="middle" x="462" y="-164.8" font-family="Times,serif" font-size="14.00">ParticipantsModule</text>
</g>
<!-- ParticipantsComponent&#45;&gt;ParticipantsModule -->
<g id="edge1" class="edge">
<title>ParticipantsComponent&#45;&gt;ParticipantsModule</title>
<path fill="none" stroke="black" d="M98,-122.28C98,-143.32 98,-175 98,-175 98,-175 389.01,-175 389.01,-175"/>
<polygon fill="black" stroke="black" points="389.01,-178.5 399.01,-175 389.01,-171.5 389.01,-178.5"/>
</g>
<!-- MaterialModule -->
<g id="node3" class="node">
<title>MaterialModule</title>
<polygon fill="#8dd3c7" stroke="black" points="829.47,-122 826.47,-126 805.47,-126 802.47,-122 722.53,-122 722.53,-86 829.47,-86 829.47,-122"/>
<text text-anchor="middle" x="776" y="-99.8" font-family="Times,serif" font-size="14.00">MaterialModule</text>
</g>
<!-- MaterialModule&#45;&gt;ParticipantsModule -->
<g id="edge2" class="edge">
<title>MaterialModule&#45;&gt;ParticipantsModule</title>
<path fill="none" stroke="black" d="M776,-122.28C776,-143.32 776,-175 776,-175 776,-175 534.79,-175 534.79,-175"/>
<polygon fill="black" stroke="black" points="534.79,-171.5 524.79,-175 534.79,-178.5 534.79,-171.5"/>
</g>
<!-- ParticipantCardModule -->
<g id="node4" class="node">
<title>ParticipantCardModule</title>
<polygon fill="#8dd3c7" stroke="black" points="704.91,-122 701.91,-126 680.91,-126 677.91,-122 557.09,-122 557.09,-86 704.91,-86 704.91,-122"/>
<text text-anchor="middle" x="631" y="-99.8" font-family="Times,serif" font-size="14.00">ParticipantCardModule</text>
</g>
<!-- ParticipantCardModule&#45;&gt;ParticipantsModule -->
<g id="edge3" class="edge">
<title>ParticipantCardModule&#45;&gt;ParticipantsModule</title>
<path fill="none" stroke="black" d="M631,-122.02C631,-139.37 631,-163 631,-163 631,-163 534.93,-163 534.93,-163"/>
<polygon fill="black" stroke="black" points="534.93,-159.5 524.93,-163 534.93,-166.5 534.93,-159.5"/>
</g>
<!-- ParticipantEditorModule -->
<g id="node5" class="node">
<title>ParticipantEditorModule</title>
<polygon fill="#8dd3c7" stroke="black" points="539.69,-122 536.69,-126 515.69,-126 512.69,-122 384.31,-122 384.31,-86 539.69,-86 539.69,-122"/>
<text text-anchor="middle" x="462" y="-99.8" font-family="Times,serif" font-size="14.00">ParticipantEditorModule</text>
</g>
<!-- ParticipantEditorModule&#45;&gt;ParticipantsModule -->
<g id="edge4" class="edge">
<title>ParticipantEditorModule&#45;&gt;ParticipantsModule</title>
<path fill="none" stroke="black" d="M462,-122.11C462,-122.11 462,-140.99 462,-140.99"/>
<polygon fill="black" stroke="black" points="458.5,-140.99 462,-150.99 465.5,-140.99 458.5,-140.99"/>
</g>
<!-- ParticipantsRoutingModule -->
<g id="node6" class="node">
<title>ParticipantsRoutingModule</title>
<polygon fill="#8dd3c7" stroke="black" points="366.26,-122 363.26,-126 342.26,-126 339.26,-122 195.74,-122 195.74,-86 366.26,-86 366.26,-122"/>
<text text-anchor="middle" x="281" y="-99.8" font-family="Times,serif" font-size="14.00">ParticipantsRoutingModule</text>
</g>
<!-- ParticipantsRoutingModule&#45;&gt;ParticipantsModule -->
<g id="edge5" class="edge">
<title>ParticipantsRoutingModule&#45;&gt;ParticipantsModule</title>
<path fill="none" stroke="black" d="M281,-122.02C281,-139.37 281,-163 281,-163 281,-163 389.2,-163 389.2,-163"/>
<polygon fill="black" stroke="black" points="389.2,-166.5 399.2,-163 389.2,-159.5 389.2,-166.5"/>
</g>
</g>
</svg>
