<?xml version="1.0" encoding="UTF-8" standalone="no"?>
<!DOCTYPE svg PUBLIC "-//W3C//DTD SVG 1.1//EN"
 "http://www.w3.org/Graphics/SVG/1.1/DTD/svg11.dtd">
<!-- Generated by graphviz version 2.47.0 (20210316.0004)
 -->
<!-- Title: dependencies Pages: 1 -->
<svg width="504pt" height="211pt"
 viewBox="0.00 0.00 504.00 211.00" xmlns="http://www.w3.org/2000/svg" xmlns:xlink="http://www.w3.org/1999/xlink">
<g id="graph0" class="graph" transform="scale(1 1) rotate(0) translate(4 207)">
<title>dependencies</title>
<polygon fill="white" stroke="transparent" points="-4,4 -4,-207 500,-207 500,4 -4,4"/>
<text text-anchor="start" x="227.01" y="-42.4" font-family="sans-serif" font-weight="bold" font-size="14.00">Legend</text>
<polygon fill="#ffffb3" stroke="transparent" points="14,-10 14,-30 34,-30 34,-10 14,-10"/>
<text text-anchor="start" x="37.63" y="-15.4" font-family="sans-serif" font-size="14.00"> &#160;Declarations</text>
<polygon fill="#8dd3c7" stroke="transparent" points="127,-10 127,-30 147,-30 147,-10 127,-10"/>
<text text-anchor="start" x="150.73" y="-15.4" font-family="sans-serif" font-size="14.00"> &#160;Module</text>
<polygon fill="#80b1d3" stroke="transparent" points="213,-10 213,-30 233,-30 233,-10 213,-10"/>
<text text-anchor="start" x="236.78" y="-15.4" font-family="sans-serif" font-size="14.00"> &#160;Bootstrap</text>
<polygon fill="#fdb462" stroke="transparent" points="310,-10 310,-30 330,-30 330,-10 310,-10"/>
<text text-anchor="start" x="333.67" y="-15.4" font-family="sans-serif" font-size="14.00"> &#160;Providers</text>
<polygon fill="#fb8072" stroke="transparent" points="406,-10 406,-30 426,-30 426,-10 406,-10"/>
<text text-anchor="start" x="429.73" y="-15.4" font-family="sans-serif" font-size="14.00"> &#160;Exports</text>
<g id="clust1" class="cluster">
<title>cluster_LandingModule</title>
<polygon fill="none" stroke="black" stroke-dasharray="1,5" points="80,-70 80,-195 416,-195 416,-70 80,-70"/>
</g>
<g id="clust4" class="cluster">
<title>cluster_LandingModule_imports</title>
<polygon fill="none" stroke="black" points="240,-78 240,-130 408,-130 408,-78 240,-78"/>
</g>
<g id="clust2" class="cluster">
<title>cluster_LandingModule_declarations</title>
<polygon fill="none" stroke="black" points="88,-78 88,-130 232,-130 232,-78 88,-78"/>
</g>
<!-- LandingComponent -->
<g id="node1" class="node">
<title>LandingComponent</title>
<polygon fill="#ffffb3" stroke="black" points="223.99,-122 96.01,-122 96.01,-86 223.99,-86 223.99,-122"/>
<text text-anchor="middle" x="160" y="-99.8" font-family="Times,serif" font-size="14.00">LandingComponent</text>
</g>
<!-- LandingModule -->
<g id="node2" class="node">
<title>LandingModule</title>
<polygon fill="#8dd3c7" stroke="black" points="295.21,-187 292.21,-191 271.21,-191 268.21,-187 188.79,-187 188.79,-151 295.21,-151 295.21,-187"/>
<text text-anchor="middle" x="242" y="-164.8" font-family="Times,serif" font-size="14.00">LandingModule</text>
</g>
<!-- LandingComponent&#45;&gt;LandingModule -->
<g id="edge1" class="edge">
<title>LandingComponent&#45;&gt;LandingModule</title>
<path fill="none" stroke="black" d="M206.45,-122.11C206.45,-122.11 206.45,-140.99 206.45,-140.99"/>
<polygon fill="black" stroke="black" points="202.95,-140.99 206.45,-150.99 209.95,-140.99 202.95,-140.99"/>
</g>
<!-- LandingRoutingModule -->
<g id="node3" class="node">
<title>LandingRoutingModule</title>
<polygon fill="#8dd3c7" stroke="black" points="399.83,-122 396.83,-126 375.83,-126 372.83,-122 248.17,-122 248.17,-86 399.83,-86 399.83,-122"/>
<text text-anchor="middle" x="324" y="-99.8" font-family="Times,serif" font-size="14.00">LandingRoutingModule</text>
</g>
<!-- LandingRoutingModule&#45;&gt;LandingModule -->
<g id="edge2" class="edge">
<title>LandingRoutingModule&#45;&gt;LandingModule</title>
<path fill="none" stroke="black" d="M271.72,-122.11C271.72,-122.11 271.72,-140.99 271.72,-140.99"/>
<polygon fill="black" stroke="black" points="268.22,-140.99 271.72,-150.99 275.22,-140.99 268.22,-140.99"/>
</g>
</g>
</svg>
